<svg width="256" height="256" viewBox="0 0 256 256" fill="none" xmlns="http://www.w3.org/2000/svg">
<g clip-path="url(#clip0_6_2)">
<path d="M204.8 0H51.2C22.923 0 0 22.923 0 51.2V204.8C0 233.077 22.923 256 51.2 256H204.8C233.077 256 256 233.077 256 204.8V51.2C256 22.923 233.077 0 204.8 0Z" fill="white"/>
<path fill-rule="evenodd" clip-rule="evenodd" d="M84.875 175.438C83.7313 175.438 82.6344 174.983 81.8256 174.174C81.0169 173.366 80.5625 172.269 80.5625 171.125V84.875C80.5625 83.7313 81.0169 82.6344 81.8256 81.8256C82.6344 81.0169 83.7313 80.5625 84.875 80.5625H164.656C166.372 80.5625 168.017 79.881 169.23 78.6678C170.443 77.4547 171.125 75.8094 171.125 74.0938C171.125 72.3781 170.443 70.7328 169.23 69.5197C168.017 68.3065 166.372 67.625 164.656 67.625H84.875C80.3 67.625 75.9124 69.4424 72.6774 72.6774C69.4424 75.9124 67.625 80.3 67.625 84.875V171.125C67.625 175.7 69.4424 180.088 72.6774 183.323C75.9124 186.558 80.3 188.375 84.875 188.375H171.125C175.7 188.375 180.088 186.558 183.323 183.323C186.558 180.088 188.375 175.7 188.375 171.125V143.094C188.375 141.378 187.693 139.733 186.48 138.52C185.267 137.307 183.622 136.625 181.906 136.625C180.191 136.625 178.545 137.307 177.332 138.52C176.119 139.733 175.438 141.378 175.438 143.094V171.125C175.438 172.269 174.983 173.366 174.174 174.174C173.366 174.983 172.269 175.438 171.125 175.438H84.875ZM195.102 99.365C196.245 98.1387 196.867 96.5168 196.838 94.841C196.808 93.1651 196.129 91.5662 194.944 90.381C193.759 89.1958 192.16 88.5169 190.484 88.4874C188.808 88.4578 187.186 89.0799 185.96 90.2225L138.022 138.152L121.868 121.454C121.278 120.838 120.573 120.344 119.792 120.002C119.012 119.66 118.171 119.475 117.319 119.459C116.466 119.442 115.619 119.594 114.826 119.907C114.033 120.219 113.309 120.684 112.696 121.277C112.084 121.87 111.594 122.578 111.256 123.361C110.918 124.143 110.738 124.985 110.726 125.837C110.714 126.689 110.871 127.536 111.188 128.327C111.504 129.119 111.974 129.84 112.57 130.45L133.296 151.874C133.892 152.492 134.606 152.986 135.395 153.326C136.184 153.665 137.033 153.845 137.892 153.853C138.751 153.861 139.603 153.697 140.399 153.372C141.194 153.048 141.917 152.567 142.525 151.96L195.102 99.365Z" fill="#1E1E2E"/>
</g>
<defs>
<clipPath id="clip0_6_2">
<rect width="256" height="256" fill="white"/>
</clipPath>
</defs>
</svg>
